<?xml version="1.0" encoding="UTF-8" standalone="no"?>
<!-- Created with Inkscape (http://www.inkscape.org/) -->

<svg
   width="200mm"
   height="200mm"
   viewBox="0 0 200 200"
   version="1.1"
   id="svg1"
   inkscape:version="1.3.2 (091e20e, 2023-11-25, custom)"
   sodipodi:docname="WebInteractiveMap.svg"
   xmlns:inkscape="http://www.inkscape.org/namespaces/inkscape"
   xmlns:sodipodi="http://sodipodi.sourceforge.net/DTD/sodipodi-0.dtd"
   xmlns="http://www.w3.org/2000/svg"
   xmlns:svg="http://www.w3.org/2000/svg">
  <sodipodi:namedview
     id="namedview1"
     pagecolor="#505050"
     bordercolor="#eeeeee"
     borderopacity="1"
     inkscape:showpageshadow="0"
     inkscape:pageopacity="0"
     inkscape:pagecheckerboard="0"
     inkscape:deskcolor="#505050"
     inkscape:document-units="mm"
     inkscape:zoom="4"
     inkscape:cx="494.625"
     inkscape:cy="354.375"
     inkscape:window-width="1920"
     inkscape:window-height="1009"
     inkscape:window-x="-8"
     inkscape:window-y="-8"
     inkscape:window-maximized="1"
     inkscape:current-layer="layer1" />
  <defs
     id="defs1">
    <inkscape:path-effect
       effect="fillet_chamfer"
       id="path-effect27"
       is_visible="true"
       lpeversion="1"
       nodesatellites_param="F,0,0,1,0,0,0,1 @ F,0,0,1,0,4.9835954,0,1 @ F,0,0,1,0,3.6278527,0,1 @ F,0,0,1,0,3,0,1 @ F,0,0,1,0,4.8520833,0,1 @ F,0,0,1,0,0,0,1"
       radius="3"
       unit="mm"
       method="auto"
       mode="F"
       chamfer_steps="1"
       flexible="false"
       use_knot_distance="true"
       apply_no_radius="true"
       apply_with_radius="true"
       only_selected="false"
       hide_knots="false" />
    <inkscape:path-effect
       effect="fillet_chamfer"
       id="path-effect26"
       is_visible="true"
       lpeversion="1"
       nodesatellites_param="F,0,0,1,0,0,0,1 @ F,0,0,1,0,3.5622375,0,1 @ F,0,0,1,0,4.8521619,0,1 @ F,0,0,1,0,4.9340108,0,1 @ F,0,0,1,0,3.5784788,0,1 @ F,0,0,1,0,0,0,1"
       radius="3"
       unit="mm"
       method="auto"
       mode="F"
       chamfer_steps="1"
       flexible="false"
       use_knot_distance="true"
       apply_no_radius="true"
       apply_with_radius="true"
       only_selected="false"
       hide_knots="false" />
    <inkscape:path-effect
       effect="fillet_chamfer"
       id="path-effect25"
       is_visible="true"
       lpeversion="1"
       nodesatellites_param="F,0,0,1,0,0,0,1 @ F,0,0,1,0,3.4864781,0,1 @ F,0,0,1,0,4.5037826,0,1 @ F,0,0,1,0,5,0,1 @ F,0,0,1,0,5,0,1 @ F,0,0,1,0,0,0,1"
       radius="5"
       unit="mm"
       method="auto"
       mode="F"
       chamfer_steps="1"
       flexible="false"
       use_knot_distance="true"
       apply_no_radius="true"
       apply_with_radius="true"
       only_selected="false"
       hide_knots="false" />
    <inkscape:path-effect
       effect="fillet_chamfer"
       id="path-effect24"
       is_visible="true"
       lpeversion="1"
       nodesatellites_param="F,0,0,1,0,0,0,1 @ F,0,0,1,0,4,0,1 @ F,0,0,1,0,3.5369801,0,1 @ F,0,0,1,0,3.5204319,0,1 @ F,0,0,1,0,4.9406102,0,1 @ F,0,0,1,0,0,0,1"
       radius="4"
       unit="mm"
       method="auto"
       mode="F"
       chamfer_steps="1"
       flexible="false"
       use_knot_distance="true"
       apply_no_radius="true"
       apply_with_radius="true"
       only_selected="false"
       hide_knots="false" />
    <inkscape:path-effect
       effect="fillet_chamfer"
       id="path-effect22"
       is_visible="true"
       lpeversion="1"
       nodesatellites_param="F,0,0,1,0,0,0,1 @ F,0,0,1,0,4,0,1 @ F,0,0,1,0,4,0,1"
       radius="4"
       unit="mm"
       method="auto"
       mode="F"
       chamfer_steps="1"
       flexible="false"
       use_knot_distance="true"
       apply_no_radius="true"
       apply_with_radius="true"
       only_selected="false"
       hide_knots="false" />
    <inkscape:path-effect
       effect="fillet_chamfer"
       id="path-effect21"
       is_visible="true"
       lpeversion="1"
       nodesatellites_param="F,0,0,1,0,0,0,1 @ F,0,0,1,0,5,0,1 @ F,0,0,1,0,5,0,1"
       radius="5"
       unit="mm"
       method="auto"
       mode="F"
       chamfer_steps="1"
       flexible="false"
       use_knot_distance="true"
       apply_no_radius="true"
       apply_with_radius="true"
       only_selected="false"
       hide_knots="false" />
    <inkscape:path-effect
       effect="fillet_chamfer"
       id="path-effect20"
       is_visible="true"
       lpeversion="1"
       nodesatellites_param="F,0,0,1,0,0,0,1 @ F,0,0,1,0,4.4544762,0,1 @ F,0,1,1,0,4.4544762,0,1 @ F,0,0,1,0,0,0,1"
       radius="4"
       unit="mm"
       method="auto"
       mode="F"
       chamfer_steps="1"
       flexible="false"
       use_knot_distance="true"
       apply_no_radius="true"
       apply_with_radius="true"
       only_selected="false"
       hide_knots="false" />
    <inkscape:path-effect
       effect="fillet_chamfer"
       id="path-effect19"
       is_visible="true"
       lpeversion="1"
       nodesatellites_param="F,0,0,1,0,0,0,1 @ F,0,0,1,0,5.1286235,0,1 @ F,0,0,1,0,5,0,1 @ F,0,0,1,0,0,0,1"
       radius="5"
       unit="mm"
       method="auto"
       mode="F"
       chamfer_steps="1"
       flexible="false"
       use_knot_distance="true"
       apply_no_radius="true"
       apply_with_radius="true"
       only_selected="false"
       hide_knots="false" />
    <inkscape:path-effect
       effect="fillet_chamfer"
       id="path-effect12"
       is_visible="true"
       lpeversion="1"
       nodesatellites_param="F,0,0,1,0,0,0,1 @ F,0,0,1,0,4,0,1 @ F,0,0,1,0,2.9582031,0,1 @ F,0,0,1,0,3.4270379,0,1 @ F,0,0,1,0,2.7956216,0,1 @ F,0,0,1,0,5.2277699,0,1 @ F,0,0,1,0,0,0,1"
       radius="4"
       unit="mm"
       method="auto"
       mode="F"
       chamfer_steps="1"
       flexible="false"
       use_knot_distance="true"
       apply_no_radius="true"
       apply_with_radius="true"
       only_selected="false"
       hide_knots="false" />
    <inkscape:path-effect
       effect="fillet_chamfer"
       id="path-effect11"
       is_visible="true"
       lpeversion="1"
       nodesatellites_param="F,0,0,1,0,0,0,1 @ F,0,1,1,0,4.97,0,1 @ F,0,0,1,0,4.97,0,1 @ F,0,0,1,0,4.97,0,1 @ F,0,0,1,0,4.97,0,1 @ F,0,0,1,0,4.97,0,1 @ F,0,0,1,0,0,0,1"
       radius="0"
       unit="mm"
       method="bezier"
       mode="F"
       chamfer_steps="2"
       flexible="false"
       use_knot_distance="true"
       apply_no_radius="true"
       apply_with_radius="true"
       only_selected="false"
       hide_knots="false" />
    <inkscape:path-effect
       effect="fillet_chamfer"
       id="path-effect3"
       is_visible="true"
       lpeversion="1"
       nodesatellites_param="F,0,0,1,0,0,0,1 @ F,0,0,1,0,3,0,1 @ F,0,0,1,0,3,0,1 @ F,0,0,1,0,3,0,1 @ F,0,0,1,0,3,0,1 @ F,0,0,1,0,3,0,1 @ F,0,0,1,0,3,0,1 @ F,0,0,1,0,3,0,1 @ F,0,0,1,0,3,0,1 @ F,0,0,1,0,3,0,1 @ F,0,0,1,0,3,0,1 @ F,0,0,1,0,3,0,1 @ F,0,0,1,0,3,0,1 @ F,0,0,1,0,3,0,1"
       radius="4"
       unit="mm"
       method="auto"
       mode="F"
       chamfer_steps="1"
       flexible="false"
       use_knot_distance="true"
       apply_no_radius="true"
       apply_with_radius="true"
       only_selected="false"
       hide_knots="false" />
    <inkscape:path-effect
       effect="fillet_chamfer"
       id="path-effect18"
       is_visible="true"
       lpeversion="1"
       nodesatellites_param="F,0,0,1,0,0,0,1 @ F,0,0,1,0,4,0,1 @ F,0,0,1,0,4,0,1 @ F,0,0,1,0,4,0,1 @ F,0,0,1,0,4,0,1 @ F,0,0,1,0,4,0,1"
       radius="4"
       unit="mm"
       method="auto"
       mode="F"
       chamfer_steps="1"
       flexible="false"
       use_knot_distance="true"
       apply_no_radius="true"
       apply_with_radius="true"
       only_selected="false"
       hide_knots="false" />
    <inkscape:path-effect
       effect="fillet_chamfer"
       id="path-effect17"
       is_visible="true"
       lpeversion="1"
       nodesatellites_param="F,0,0,1,0,0,0,1 @ F,0,0,1,0,4,0,1 @ F,0,0,1,0,4,0,1 @ F,0,0,1,0,4,0,1 @ F,0,0,1,0,4,0,1 @ F,0,0,1,0,4,0,1"
       radius="4"
       unit="mm"
       method="auto"
       mode="F"
       chamfer_steps="1"
       flexible="false"
       use_knot_distance="true"
       apply_no_radius="true"
       apply_with_radius="true"
       only_selected="false"
       hide_knots="false" />
    <inkscape:path-effect
       effect="fillet_chamfer"
       id="path-effect16"
       is_visible="true"
       lpeversion="1"
       nodesatellites_param="F,0,0,1,0,0,0,1 @ F,0,0,1,0,5.0811198,0,1 @ F,0,0,1,0,4.8,0,1 @ F,0,0,1,0,0,0,1"
       radius="4.8"
       unit="mm"
       method="auto"
       mode="F"
       chamfer_steps="1"
       flexible="false"
       use_knot_distance="true"
       apply_no_radius="true"
       apply_with_radius="true"
       only_selected="false"
       hide_knots="false" />
    <inkscape:path-effect
       effect="fillet_chamfer"
       id="path-effect15"
       is_visible="true"
       lpeversion="1"
       nodesatellites_param="F,0,0,1,0,0,0,1 @ F,0,0,1,0,4,0,1 @ F,0,0,1,0,4,0,1 @ F,0,0,1,0,4,0,1 @ F,0,0,1,0,4,0,1 @ F,0,0,1,0,4,0,1 @ F,0,0,1,0,4,0,1"
       radius="4"
       unit="mm"
       method="auto"
       mode="F"
       chamfer_steps="1"
       flexible="false"
       use_knot_distance="true"
       apply_no_radius="true"
       apply_with_radius="true"
       only_selected="false"
       hide_knots="false" />
    <inkscape:path-effect
       effect="fillet_chamfer"
       id="path-effect14"
       is_visible="true"
       lpeversion="1"
       nodesatellites_param="F,0,0,1,0,0,0,1 @ F,0,0,1,0,4,0,1 @ F,0,0,1,0,4,0,1"
       radius="4"
       unit="mm"
       method="auto"
       mode="F"
       chamfer_steps="1"
       flexible="false"
       use_knot_distance="true"
       apply_no_radius="true"
       apply_with_radius="true"
       only_selected="false"
       hide_knots="false" />
    <inkscape:path-effect
       effect="fillet_chamfer"
       id="path-effect13"
       is_visible="true"
       lpeversion="1"
       nodesatellites_param="F,0,0,1,0,0,0,1 @ F,0,0,1,0,0,0,1 @ F,0,0,1,0,0,0,1 @ F,0,0,1,0,0,0,1"
       radius="0"
       unit="mm"
       method="auto"
       mode="F"
       chamfer_steps="1"
       flexible="false"
       use_knot_distance="true"
       apply_no_radius="true"
       apply_with_radius="true"
       only_selected="false"
       hide_knots="false" />
  </defs>
  <g
     inkscape:label="Layer 1"
     inkscape:groupmode="layer"
     id="layer1">
    <rect
       style="fill:#111827;fill-opacity:1;stroke-width:0.266666"
       id="rect1"
       width="200"
       height="200"
       x="0"
       y="0" />
    <path
       style="fill:#48566a;fill-opacity:1;stroke-width:0.264583"
       d="m 20,0 v 137.48532 c 0,1.9804 0.02047,1.99511 21.482736,23.45738 21.432683,21.43268 21.465193,21.34853 25.789049,21.34853 8.793947,0 52.438095,-0.0204 52.438095,-0.0204 3.3718,0 3.32835,-0.0737 17.1751,-13.92041 10.45338,-10.45338 10.46469,-10.53803 10.46469,-15.07554 v -33.0967 c 0,-2.22392 0.017,-2.21759 -9.06068,-11.29523 -6.70151,-6.7015 -6.69658,-6.7002 -6.69658,-8.72424 V 0.0228321 Z"
       id="path1"
       sodipodi:nodetypes="ccsccsccsccc" />
    <path
       style="fill:#48566a;fill-opacity:1;stroke-width:0.265618"
       d="m 145.4566,0.0020832 -0.008,92.4201648 c 0,3.059169 -0.05,3.066007 6.9525,10.068512 6.86689,6.86689 8.477,6.83567 8.47733,11.15784 0,0 0.003,0.0825 0.003,43.73876 0,2.93848 0.0175,2.95995 -15.76632,18.86751 -18.09013,18.23193 -16.56259,15.81369 -16.56259,19.19179 v 4.55319 l 71.41987,1.5e-4 4e-5,-200 z"
       id="path2"
       sodipodi:nodetypes="ccssssscccc" />
    <path
       style="opacity:1;fill:#48566a;fill-opacity:0;stroke:#f8a13a;stroke-width:1.79846;stroke-dasharray:none;stroke-opacity:1;paint-order:normal"
       d="m 66.145832,178.85077 52.075688,-0.0435 a 9.6945563,9.6945563 157.53101 0 0 6.83384,-2.82634 l 16.48311,-16.42003 a 9.6307356,9.6307356 112.55492 0 0 2.83384,-6.823 v -29.68016 a 9.6451849,9.6451849 67.475496 0 0 -2.83085,-6.82601 l -10.99478,-10.97599 a 9.6451849,9.6451849 67.475496 0 1 -2.83085,-6.82601 V 0"
       id="path10"
       inkscape:path-effect="#path-effect17"
       inkscape:original-d="m 66.145832,178.85077 56.075688,-0.0468 22.15079,-22.06603 V 119.05778 L 127.71583,102.42977 V 0"
       sodipodi:nodetypes="cccccc" />
    <path
       style="opacity:1;fill:#48566a;fill-opacity:1;stroke:#1fbfff;stroke-width:1.94117;stroke-dasharray:none;stroke-opacity:0"
       d="M 0.06557542,173.10692 26.616356,199.94569 H -0.01644435 Z"
       id="path7"
       sodipodi:nodetypes="cccc" />
    <path
       style="fill:#27303b;fill-opacity:0;stroke:#ffffff;stroke-width:0.2;stroke-dasharray:none;stroke-opacity:1"
       d="m 65.945832,177.84531 51.862628,-0.0434 a 9.6956239,9.6956239 157.53315 0 0 6.83406,-2.82612 l 16.22385,-16.15931 a 8.515666,8.515666 112.55865 0 0 2.50619,-6.03301 l 0.002,-29.78936 a 8.4889296,8.4889296 67.478905 0 0 -2.4911,-6.00778 l -10.67079,-10.65393 a 11.914364,11.914364 67.47735 0 1 -3.4963,-8.43139 l 0,-97.92581469"
       id="path24"
       sodipodi:nodetypes="cccccc"
       inkscape:path-effect="#path-effect24"
       inkscape:original-d="m 65.945832,177.84531 55.862628,-0.0467 21.56391,-21.47812 0.002,-36.84677 -16.65838,-16.63206 V -0.02476469" />
    <path
       style="fill:#27303b;fill-opacity:0;stroke:#ffffff;stroke-width:0.2;stroke-dasharray:none;stroke-opacity:1"
       d="m 128.71359,0.00206706 0.002,98.52739494 a 8.4068888,8.4068888 67.47427 0 0 2.46755,5.949628 l 11.00084,10.98152 a 10.856013,10.856013 67.481526 0 1 3.1864,7.68564 l -0.007,29.00824 a 12.039936,12.039936 112.56575 0 1 -3.54398,8.52824 l -15.65492,15.5905 a 12.120526,12.120526 157.5354 0 1 -8.54281,3.53237 l -51.678128,0.0427"
       id="path22"
       sodipodi:nodetypes="cccccc"
       inkscape:path-effect="#path-effect25"
       inkscape:original-d="m 128.71359,0.00206706 0.002,102.01387294 16.65577,16.62653 -0.009,38.51202 -22.74054,22.64698 -56.678128,0.0468" />
    <path
       style="fill:#27303b;fill-opacity:0;stroke:#ffffff;stroke-width:0.2;stroke-dasharray:none;stroke-opacity:1"
       d="M 4.8116867,200.17903 26.226052,178.80597 a 9.6681826,9.6681826 157.53158 0 1 6.831157,-2.82514 l 167.034121,0.0229"
       id="path21"
       sodipodi:nodetypes="ccc"
       inkscape:path-effect="#path-effect22"
       inkscape:original-d="m 4.8116867,200.17903 24.2455223,-24.19875 171.034121,0.0234" />
    <path
       style="opacity:1;fill:#ffffff;fill-opacity:0;stroke:#0058a9;stroke-width:1.8;stroke-dasharray:none;stroke-opacity:1"
       d="M 189.44165,-0.01860354 V 54.184576 a 4,4 135 0 1 -4,4 H 34.439682 a 4.0002211,4.0002211 135.00158 0 0 -4.000221,4 l -0.004,71.612064 a 9.6512868,9.6512868 67.491482 0 0 2.829203,6.82743 l 29.655657,29.63475 a 9.6335238,9.6335238 22.430756 0 0 6.829415,2.81917 l 51.473102,-0.10626 a 9.7074178,9.7074178 157.48731 0 0 6.833,-2.8321 l 12.74579,-12.70452"
       id="path6"
       inkscape:path-effect="#path-effect15"
       inkscape:original-d="M 189.44165,-0.01860354 V 58.184576 H 30.439682 l -0.0044,79.612064 35.314505,35.28961 59.473083,-0.12278 15.5788,-15.52836"
       sodipodi:nodetypes="ccccccc" />
    <path
       style="fill:#27303b;fill-opacity:0;stroke:#ffffff;stroke-width:0.2;stroke-dasharray:none;stroke-opacity:1"
       d="m 188.46601,-0.04960937 0.0625,54.13160537 c 0.002,1.721808 -1.3922,3.117498 -3.11401,3.11736 L 34.407693,57.187225 c -2.744855,-2.2e-4 -4.96992,2.224746 -4.969822,4.969601 l 0.0026,72.259294 c 7.5e-5,2.10109 1.204531,5.00876 2.690227,6.49445 l 30.365849,30.36586 c 1.543466,1.54346 4.564194,2.79443 6.746984,2.7941 l 51.394513,-0.008 c 2.74486,-4.1e-4 6.53956,-1.57801 8.4757,-3.52366 l 12.48197,-12.54328"
       id="path3"
       sodipodi:nodetypes="ccccccc"
       inkscape:original-d="m 188.46601,-0.04960937 0.0661,57.24921537 -159.094417,-0.01278 0.0029,81.033654 35.850632,35.85064 60.316805,-0.009 15.98767,-16.0662"
       inkscape:path-effect="#path-effect11" />
    <path
       style="fill:#27303b;fill-opacity:0;stroke:#ffffff;stroke-width:0.2;stroke-dasharray:none;stroke-opacity:1"
       d="m 141.58035,158.08478 -1.34571,-1.38048 -0.11369,-0.11162"
       id="path8"
       sodipodi:nodetypes="ccc" />
    <path
       style="fill:#27303b;fill-opacity:0;stroke:#ffffff;stroke-width:0.2;stroke-dasharray:none;stroke-opacity:1"
       d="m 140.15321,156.7043 -12.55623,12.52249 a 9.6752578,9.6752578 157.53854 0 1 -6.83223,2.82462 H 69.117434 a 7.1476946,7.1476946 22.483105 0 1 -5.051202,-2.09053 L 33.861451,139.7917 a 8.2662726,8.2662726 67.484168 0 1 -2.424583,-5.84889 l 0.0027,-71.954089 a 2.7958923,2.7958923 134.99935 0 1 2.795726,-2.795789 l 150.980487,-0.009 a 5.2280998,5.2280998 134.99838 0 0 5.22778,-5.228082 l 1.9e-4,-54.21309692"
       id="path11"
       sodipodi:nodetypes="ccccccc"
       inkscape:path-effect="#path-effect12"
       inkscape:original-d="m 140.15321,156.7043 -15.38846,15.34711 H 66.159231 l -34.72249,-34.68156 0.0029,-78.176751 159.003879,-0.0095 2e-4,-59.44086692" />
    <path
       style="fill:#27303b;fill-opacity:0;stroke:#ffffff;stroke-width:0.2;stroke-dasharray:none;stroke-opacity:1"
       d="m 27.502035,0 v 133.90165 a 12.402748,12.402748 67.534562 0 0 3.622107,8.75948 l 31.562288,31.63853 a 12.03862,12.03862 22.514547 0 0 8.531265,3.53631 l 128.826865,-0.09"
       id="path12"
       inkscape:path-effect="#path-effect19"
       inkscape:original-d="m 27.502035,0 v 139.03027 l 38.715661,38.80919 133.826864,-0.0935"
       sodipodi:nodetypes="cccc" />
    <path
       style="opacity:1;fill:#ffffff;fill-opacity:0;stroke:#ef3a42;stroke-width:1.8;stroke-dasharray:none;stroke-opacity:1"
       d="m 28.437477,0 v 133.55158 a 12.282857,12.282857 67.526308 0 0 3.589593,8.67731 l 31.1855,31.24283 a 11.564592,11.564592 22.511232 0 0 8.190993,3.3947 l 128.594227,-0.0677"
       id="path4"
       inkscape:path-effect="#path-effect16"
       inkscape:original-d="m 28.437477,0 v 138.6327 l 38.166087,38.23625 133.394226,-0.0702"
       sodipodi:nodetypes="cccc" />
    <path
       style="fill:#27303b;fill-opacity:0;stroke:#ffffff;stroke-width:0.2;stroke-dasharray:none;stroke-opacity:1"
       d="m 29.31914,0 0.157292,133.84927 a 10.770806,10.770806 67.464177 0 0 3.155263,7.60402 l 31.359246,31.35453 a 10.759884,10.759884 22.506656 0 0 7.604504,3.15092 l 128.495885,0.0395"
       id="path14"
       inkscape:path-effect="#path-effect20"
       inkscape:original-d="m 29.31914,0 0.162527,138.30374 37.659302,37.65363 132.950361,0.0409"
       sodipodi:nodetypes="cccc" />
    <path
       style="opacity:1;fill:#c000e0;fill-opacity:0;stroke:#b43c96;stroke-width:1.8;stroke-dasharray:none;stroke-opacity:1;paint-order:normal"
       d="m 200.05239,174.99448 c -0.49253,-0.007 -141.668156,-0.011 -167.399466,-0.0116 -2.209124,-5e-5 -5.267527,1.26501 -6.831135,2.8256 L 2.913925,200.67203"
       id="path13"
       sodipodi:nodetypes="ccc"
       inkscape:path-effect="#path-effect14"
       inkscape:original-d="m 200.05239,174.99448 c -0.54193,-0.008 -171.399438,-0.0117 -171.399438,-0.0117 L 2.913925,200.67203" />
    <path
       style="fill:#27303b;fill-opacity:0;stroke:#ffffff;stroke-width:0.2;stroke-dasharray:none;stroke-opacity:1"
       d="m 66.045221,177.94909 v 1.99513"
       id="path23"
       sodipodi:nodetypes="cc" />
    <path
       style="fill:#27303b;fill-opacity:0;stroke:#ffffff;stroke-width:0.2;stroke-dasharray:none;stroke-opacity:1"
       d="M 2.2489583,199.97539 24.705604,177.51874 a 12.071068,12.071068 157.5 0 1 8.535534,-3.53553 l 166.826802,0"
       id="path20"
       inkscape:path-effect="#path-effect21"
       inkscape:original-d="M 2.2489583,199.97539 28.241138,173.98321 H 200.06794" />
    <path
       style="opacity:1;fill:#ffffff;fill-opacity:0;stroke:#00a65c;stroke-width:1.80221;stroke-dasharray:none;stroke-opacity:1"
       d="m 150.81239,0 v 90.960211 a 9.6745927,9.6745927 67.537152 0 0 2.82476,6.832093 l 8.5047,8.526796 a 9.6745927,9.6745927 67.537152 0 1 2.82476,6.83209 v 47.30504 a 9.6745946,9.6745946 112.46284 0 1 -2.82476,6.83209 l -25.76755,25.83449 a 9.6745946,9.6745946 112.46284 0 0 -2.82476,6.83209 V 200"
       id="path5"
       inkscape:original-d="m 150.81239,0 v 94.960211 l 14.15422,14.190979 v 55.30504 L 133.54954,195.9549 V 200"
       inkscape:path-effect="#path-effect18" />
    <path
       style="fill:#27303b;fill-opacity:0;stroke:#ffffff;stroke-width:0.2;stroke-dasharray:none;stroke-opacity:1"
       d="m 132.5494,200.02117 a 11.430476,11.430476 113.70422 0 1 3.51557,-8.00708 l 25.33646,-25.39929 a 8.7738848,8.7738848 112.46479 0 0 2.56213,-6.1963 l 4.4e-4,-47.85186 a 7.2560144,7.2560144 67.537872 0 0 -2.1185,-5.1241 l -8.60905,-8.63168 a 11.735748,11.735748 67.537609 0 1 -3.42643,-8.287525 V 0"
       id="path25"
       sodipodi:nodetypes="cccccc"
       inkscape:path-effect="#path-effect27"
       inkscape:original-d="m 132.5494,200.02117 -0.004,-4.47879 31.41813,-31.49603 5e-4,-54.47971 -14.15401,-14.191222 0,-95.375418" />
    <path
       style="fill:#27303b;fill-opacity:0;stroke:#ffffff;stroke-width:0.2;stroke-dasharray:none;stroke-opacity:1"
       d="m 151.81554,0 -0.003,90.988873 a 8.6143247,8.6143247 67.535507 0 0 2.51573,6.084159 l 8.21194,8.231798 a 11.733895,11.733895 67.535108 0 1 3.42676,8.2873 l -8.2e-4,46.34234 a 11.935341,11.935341 112.46098 0 1 -3.48414,8.42769 l -25.40122,25.47141 a 8.6832285,8.6832285 112.5237 0 0 -2.53477,6.11233 l -1e-4,0.046"
       id="path26"
       sodipodi:nodetypes="cccccc"
       inkscape:path-effect="#path-effect26"
       inkscape:original-d="m 151.81554,0 -0.003,94.55111 14.15463,14.18886 -0.001,56.12851 -31.41214,31.49895 -0.008,3.6245" />
  </g>
</svg>
